<?xml version="1.0" encoding="UTF-8"?>
<svg version="1.1" xmlns="http://www.w3.org/2000/svg" width="500" height="500">
<path d="M0 0 C1.175625 0.0825 2.35125 0.165 3.5625 0.25 C5.5625 3.25 5.5625 3.25 5.5625 6.25 C6.21992188 5.96125 6.87734375 5.6725 7.5546875 5.375 C20.85015131 0.18652632 34.69757664 2.08272131 48.625 3.125 C49.67131592 3.20314941 50.71763184 3.28129883 51.7956543 3.36181641 C57.88182616 3.87106653 63.63309258 4.78153073 69.5625 6.25 C69.2325 7.24 68.9025 8.23 68.5625 9.25 C50.80009026 12.84068068 29.11563739 16.26518211 11.5625 11.25 C11.2325 16.2 10.9025 21.15 10.5625 26.25 C11.2225 26.25 11.8825 26.25 12.5625 26.25 C12.77003906 26.87132812 12.97757812 27.49265625 13.19140625 28.1328125 C15.16999227 31.18806498 16.98766537 31.28010851 20.5 32.125 C21.13462158 32.27864014 21.76924316 32.43228027 22.4230957 32.59057617 C23.91233758 32.94615214 25.40368161 33.29298394 26.89648438 33.63330078 C29.98590016 34.34794037 33.06205526 35.11112129 36.140625 35.87109375 C38.50993123 36.43693234 40.87972756 37.00072255 43.25 37.5625 C44.37720459 37.8414209 45.50440918 38.1203418 46.66577148 38.40771484 C58.51061224 41.12671295 68.09671728 40.69193485 78.5625 34.25 C79.5525 33.54875 80.5425 32.8475 81.5625 32.125 C85.65443099 29.56754313 89.90436465 28.40899723 94.5625 27.25 C95.31144531 27.06308594 96.06039062 26.87617188 96.83203125 26.68359375 C112.58273121 24.18240964 127.24553512 26.92236914 140.4375 35.875 C150.90327319 42.48496202 162.76577642 40.00256848 174.15234375 37.4375 C177.27131908 36.72119399 180.38578394 35.98667561 183.5 35.25 C185.10205853 34.87693787 186.70427128 34.50453736 188.30664062 34.1328125 C196.44791446 32.24672954 196.44791446 32.24672954 204.5625 30.25 C204.8925 28.93 205.2225 27.61 205.5625 26.25 C206.2225 26.25 206.8825 26.25 207.5625 26.25 C207.5625 21.63 207.5625 17.01 207.5625 12.25 C204.67693525 12.14107348 204.67693525 12.14107348 202.375 12.73828125 C198.76428563 13.39523067 195.21953238 13.44150902 191.5625 13.4375 C190.39630127 13.4362915 190.39630127 13.4362915 189.20654297 13.43505859 C175.60306151 13.29759524 161.91577455 11.84877393 148.5625 9.25 C148.5625 8.26 148.5625 7.27 148.5625 6.25 C154.16439616 4.69005823 159.32543862 3.90268735 165.125 3.6875 C169.13016564 3.51806455 173.04590877 3.32655368 177.015625 2.73828125 C188.58996491 1.14489745 200.44912122 1.52335801 211.5625 5.25 C211.98144531 4.43144531 212.40039062 3.61289063 212.83203125 2.76953125 C213.68861328 1.52236328 213.68861328 1.52236328 214.5625 0.25 C218.25 -0.0625 218.25 -0.0625 221.5625 0.25 C221.5625 0.91 221.5625 1.57 221.5625 2.25 C222.2225 2.25 222.8825 2.25 223.5625 2.25 C223.5625 3.57 223.5625 4.89 223.5625 6.25 C224.2225 5.96125 224.8825 5.6725 225.5625 5.375 C232.73266516 2.68618807 239.03210143 1.9537848 246.625 2.0625 C247.48416016 2.06314453 248.34332031 2.06378906 249.22851562 2.06445312 C254.1064369 2.09799116 258.73199052 2.5234825 263.5625 3.25 C265.63054191 3.38234859 267.69709307 3.46278149 269.76782227 3.54125977 C276.88303727 3.81587648 282.91600163 4.47055523 289.5625 7.25 C287.10130422 10.25756188 285.23276669 10.74453898 281.42578125 11.19921875 C280.38462158 11.32530518 279.34346191 11.4513916 278.27075195 11.58129883 C276.58985474 11.75761841 276.58985474 11.75761841 274.875 11.9375 C273.14866333 12.12638794 273.14866333 12.12638794 271.38745117 12.3190918 C263.38077163 13.12670401 255.42139474 13.53545858 247.375 13.5625 C246.39120361 13.56789795 245.40740723 13.5732959 244.39379883 13.57885742 C239.0727786 13.52572576 234.5954583 12.99726491 229.5625 11.25 C228.20968629 13.95562743 228.35640638 16.16893655 228.3125 19.1875 C228.28671875 20.24839844 228.2609375 21.30929688 228.234375 22.40234375 C228.25268631 25.26371981 228.25268631 25.26371981 230.0625 26.65234375 C232.52180973 29.27176479 231.91457274 32.4810815 231.8125 35.875 C231.80734375 36.56851563 231.8021875 37.26203125 231.796875 37.9765625 C231.71688988 43.09561012 231.71688988 43.09561012 230.5625 44.25 C228.54285801 44.32244053 226.52082876 44.33377188 224.5 44.3125 C223.39527344 44.30347656 222.29054688 44.29445312 221.15234375 44.28515625 C220.29769531 44.27355469 219.44304687 44.26195312 218.5625 44.25 C217.9025 46.23 217.2425 48.21 216.5625 50.25 C217.8825 49.92 219.2025 49.59 220.5625 49.25 C220.5625 48.59 220.5625 47.93 220.5625 47.25 C224.828785 45.63793659 228.3686078 44.99390351 232.921875 44.984375 C234.12070312 44.98179687 235.31953125 44.97921875 236.5546875 44.9765625 C237.79476563 44.98429687 239.03484375 44.99203125 240.3125 45 C241.53710938 44.99226563 242.76171875 44.98453125 244.0234375 44.9765625 C251.10969241 44.99173649 257.68586521 45.50197297 264.5625 47.25 C264.5625 48.24 264.5625 49.23 264.5625 50.25 C259.8447682 51.13133451 255.16047594 51.55177704 250.375 51.8125 C249.62686035 51.8535083 248.8787207 51.8945166 248.10791016 51.93676758 C230.83262576 52.8349336 230.83262576 52.8349336 223.5625 50.25 C223.913125 50.78625 224.26375 51.3225 224.625 51.875 C225.84648546 54.96942983 225.12345671 57.0244989 224.5625 60.25 C225.2225 60.91 225.8825 61.57 226.5625 62.25 C226.7578125 64.4140625 226.7578125 64.4140625 226.6875 66.875 C226.66945313 67.69226563 226.65140625 68.50953125 226.6328125 69.3515625 C226.59800781 70.29128906 226.59800781 70.29128906 226.5625 71.25 C225.9025 71.58 225.2425 71.91 224.5625 72.25 C224.5625 73.24 224.5625 74.23 224.5625 75.25 C221.52543391 75.32062944 218.84344859 75.31533688 215.875 74.625 C213.29419859 73.93722576 213.29419859 73.93722576 210.5625 76.25 C207.875 75.875 207.875 75.875 205.5625 75.25 C205.459375 74.486875 205.35625 73.72375 205.25 72.9375 C204.48743477 69.95656318 203.92538307 69.13294834 201.5625 67.25 C199.42259761 66.60108654 199.42259761 66.60108654 197.02734375 66.37109375 C196.13466797 66.25443359 195.24199219 66.13777344 194.32226562 66.01757812 C193.39091797 65.90865234 192.45957031 65.79972656 191.5 65.6875 C184.44826188 64.80791755 177.5132779 63.74180541 170.5625 62.25 C170.5625 60.93 170.5625 59.61 170.5625 58.25 C171.2225 58.25 171.8825 58.25 172.5625 58.25 C172.5625 57.59 172.5625 56.93 172.5625 56.25 C175.49280198 54.55212928 177.26945754 54.01729595 180.625 54.4375 C181.47964844 54.54320312 182.33429688 54.64890625 183.21484375 54.7578125 C190.6749508 55.85463104 198.12078182 57.03518153 205.5625 58.25 C205.5625 55.94 205.5625 53.63 205.5625 51.25 C208.2025 50.26 210.8425 49.27 213.5625 48.25 C213.5625 46.93 213.5625 45.61 213.5625 44.25 C180.08622201 49.52304249 180.08622201 49.52304249 150.5625 64.25 C151.44808594 65.52617187 151.44808594 65.52617187 152.3515625 66.828125 C162.36512117 81.88809451 171.18059591 104.94749335 170.5625 123.25 C171.5525 123.58 172.5425 123.91 173.5625 124.25 C173.60504356 126.24954746 173.60330783 128.25041636 173.5625 130.25 C171.82400372 131.98849628 169.4838363 131.42216296 167.125 131.4375 C166.13628906 131.45167969 165.14757812 131.46585938 164.12890625 131.48046875 C161.5625 131.25 161.5625 131.25 159.5625 129.25 C159.9375 126.125 159.9375 126.125 160.5625 123.25 C161.2225 123.25 161.8825 123.25 162.5625 123.25 C158.67316696 108.76805946 154.03484452 94.81966336 145.62890625 82.265625 C144.5625 80.25 144.5625 80.25 144.5625 76.25 C144.005625 77.3946875 144.005625 77.3946875 143.4375 78.5625 C141.01627727 82.03291924 139.56120494 82.76765477 135.5625 84.25 C131.41439744 84.68893278 127.28923066 84.67032587 123.12109375 84.6484375 C121.32044212 84.65274277 121.32044212 84.65274277 119.4834137 84.65713501 C116.9509331 84.65917268 114.41843665 84.65366371 111.88598633 84.64111328 C108.01022183 84.62504238 104.13549797 84.64098041 100.25976562 84.66015625 C97.7968727 84.65817404 95.33398042 84.65433083 92.87109375 84.6484375 C91.13345009 84.65754654 91.13345009 84.65754654 89.36070251 84.6668396 C88.27930496 84.65738312 87.19790741 84.64792664 86.08374023 84.63818359 C84.66193703 84.63460342 84.66193703 84.63460342 83.21141052 84.63095093 C78.78043789 83.99371418 76.21917659 81.99788167 73.3125 78.6875 C71.5625 76.25 71.5625 76.25 70.5625 74.25 C70.80226562 75.26707031 71.04203125 76.28414063 71.2890625 77.33203125 C71.62582334 82.15733294 70.51449183 83.90333643 67.9375 87.9375 C67.18371191 89.17007857 66.43505898 90.40581133 65.69140625 91.64453125 C65.14057373 92.558396 65.14057373 92.558396 64.57861328 93.49072266 C59.2922224 102.64346957 56.56528196 113.1810971 53.5625 123.25 C54.2225 123.25 54.8825 123.25 55.5625 123.25 C55.94313221 125.5760857 56.27519945 127.91055264 56.5625 130.25 C55.5625 131.25 55.5625 131.25 52.875 131.3828125 C51.781875 131.38023437 50.68875 131.37765625 49.5625 131.375 C48.469375 131.37757813 47.37625 131.38015625 46.25 131.3828125 C43.5625 131.25 43.5625 131.25 42.5625 130.25 C42.84980055 127.91055264 43.18186779 125.5760857 43.5625 123.25 C44.2225 123.25 44.8825 123.25 45.5625 123.25 C45.645 122.115625 45.7275 120.98125 45.8125 119.8125 C47.8932426 101.62737972 54.15089076 82.97399607 63.5625 67.25 C64.5525 66.59 65.5425 65.93 66.5625 65.25 C58.5697996 57.87212271 49.24582151 55.40937817 38.875 52.75 C36.56094922 52.14417833 34.24714461 51.5374155 31.93359375 50.9296875 C30.28206299 50.4980127 30.28206299 50.4980127 28.59716797 50.05761719 C24.85574247 49.06191038 21.1483084 47.97897557 17.4375 46.875 C12.78966504 45.52227191 8.38655568 44.63592445 3.5625 44.25 C3.5625 44.91 3.5625 45.57 3.5625 46.25 C2.2425 46.58 0.9225 46.91 -0.4375 47.25 C-0.7675 46.59 -1.0975 45.93 -1.4375 45.25 C-0.9425 44.26 -0.9425 44.26 -0.4375 43.25 C-2.7806213 43.50561323 -5.11593403 43.84270772 -7.4375 44.25 C-7.9325 45.24 -7.9325 45.24 -8.4375 46.25 C-5.4675 46.91 -2.4975 47.57 0.5625 48.25 C0.5625 48.91 0.5625 49.57 0.5625 50.25 C1.26117188 50.21519531 1.95984375 50.18039063 2.6796875 50.14453125 C3.58976562 50.11746094 4.49984375 50.09039062 5.4375 50.0625 C6.34242188 50.02769531 7.24734375 49.99289063 8.1796875 49.95703125 C9.35917969 50.10205078 9.35917969 50.10205078 10.5625 50.25 C12.7144437 53.47791555 12.76336443 54.53400809 12.5625 58.25 C13.19752441 58.12882812 13.83254883 58.00765625 14.48681641 57.8828125 C17.38600717 57.33290216 20.28670551 56.79138409 23.1875 56.25 C24.18652344 56.05921875 25.18554688 55.8684375 26.21484375 55.671875 C39.59213979 53.19131679 39.59213979 53.19131679 44.5625 56.25 C44.5625 56.91 44.5625 57.57 44.5625 58.25 C45.2225 58.25 45.8825 58.25 46.5625 58.25 C46.5625 59.57 46.5625 60.89 46.5625 62.25 C35.89919775 63.93901303 25.23521277 65.62130954 14.5625 67.25 C13.9025 69.89 13.2425 72.53 12.5625 75.25 C8.18979718 76.3431757 4.05193024 76.25 -0.4375 76.25 C-3.28465499 76.68354565 -3.28465499 76.68354565 -5.4375 77.25 C-8.83116878 71.87669111 -8.76462342 67.38053511 -8.4375 61.25 C-7.7775 61.25 -7.1175 61.25 -6.4375 61.25 C-6.9325 56.795 -6.9325 56.795 -7.4375 52.25 C-8.46746094 52.26160156 -9.49742187 52.27320313 -10.55859375 52.28515625 C-18.26245421 52.34446585 -25.93249028 52.26139299 -33.625 51.8125 C-34.31843506 51.77326416 -35.01187012 51.73402832 -35.72631836 51.69360352 C-39.68461835 51.44238238 -43.53799081 50.9716821 -47.4375 50.25 C-47.4375 49.26 -47.4375 48.27 -47.4375 47.25 C-39.6214773 45.53840584 -32.2377077 44.99178614 -24.25 45.125 C-23.20263672 45.13402344 -22.15527344 45.14304688 -21.07617188 45.15234375 C-18.52969486 45.17559925 -15.98372969 45.20827431 -13.4375 45.25 C-13.7675 44.59 -14.0975 43.93 -14.4375 43.25 C-14.53542892 40.7384113 -14.57657983 38.26090234 -14.5625 35.75 C-14.56830078 34.71552734 -14.56830078 34.71552734 -14.57421875 33.66015625 C-14.56416646 28.50333293 -14.56416646 28.50333293 -13.4375 26.25 C-12.4475 25.59 -11.4575 24.93 -10.4375 24.25 C-10.9325 18.31 -10.9325 18.31 -11.4375 12.25 C-12.37078125 12.40984375 -13.3040625 12.5696875 -14.265625 12.734375 C-28.38066502 14.72658785 -43.16541086 13.41721893 -57.25 11.875 C-58.41821289 11.74899414 -59.58642578 11.62298828 -60.79003906 11.49316406 C-69.04587287 10.51108475 -69.04587287 10.51108475 -72.4375 8.25 C-72.4375 7.59 -72.4375 6.93 -72.4375 6.25 C-57.90527938 3.05028102 -42.98337431 2.10174043 -28.125 1.9375 C-26.88302856 1.91115479 -26.88302856 1.91115479 -25.6159668 1.88427734 C-18.89087289 1.89107105 -12.48643829 3.22553085 -6.4375 6.25 C-5.9734375 5.0434375 -5.9734375 5.0434375 -5.5 3.8125 C-4.04106653 0.29389575 -4.04106653 0.29389575 0 0 Z M-3.4375 6.25 C-3.4375 7.24 -3.4375 8.23 -3.4375 9.25 C-2.4475 9.58 -1.4575 9.91 -0.4375 10.25 C0.2225 9.92 0.8825 9.59 1.5625 9.25 C1.5625 8.26 1.5625 7.27 1.5625 6.25 C-0.0875 6.25 -1.7375 6.25 -3.4375 6.25 Z M215.5625 6.25 C214.9025 7.57 214.2425 8.89 213.5625 10.25 C215.8725 10.25 218.1825 10.25 220.5625 10.25 C220.5625 8.93 220.5625 7.61 220.5625 6.25 C218.9125 6.25 217.2625 6.25 215.5625 6.25 Z M210.5625 23.25 C209.9025 23.91 209.2425 24.57 208.5625 25.25 C210.2125 24.92 211.8625 24.59 213.5625 24.25 C212.5725 23.92 211.5825 23.59 210.5625 23.25 Z M220.5625 23.25 C224.5625 24.25 224.5625 24.25 224.5625 24.25 Z M141.5625 48.25 C140.61584473 48.87914307 139.66918945 49.50828613 138.69384766 50.15649414 C133.55833086 53.22925797 128.29297575 52.80525152 122.4609375 52.74609375 C120.72899643 52.7482766 120.72899643 52.7482766 118.96206665 52.75050354 C116.52969836 52.7488485 114.09731916 52.73733182 111.66503906 52.71655273 C107.94290759 52.68754215 104.22219649 52.69596455 100.5 52.70898438 C98.13280558 52.70274823 95.76561565 52.69435826 93.3984375 52.68359375 C91.73112076 52.68799721 91.73112076 52.68799721 90.03012085 52.69248962 C88.99199249 52.67980545 87.95386414 52.66712128 86.88427734 52.65405273 C85.97495453 52.64864975 85.06563171 52.64324677 84.12875366 52.63768005 C81.06381421 52.17466429 79.17633146 50.86027426 76.5625 49.25 C75.5725 49.745 75.5725 49.745 74.5625 50.25 C75.14 50.848125 75.7175 51.44625 76.3125 52.0625 C80.07698462 57.39551988 81.70373896 63.57829899 83.6875 69.75 C84.51614327 72.44987933 84.51614327 72.44987933 86.5625 75.25 C90.34991001 76.51247 93.89863172 76.39299286 97.84375 76.3828125 C98.6536438 76.38376923 99.4635376 76.38472595 100.29797363 76.38571167 C102.00935951 76.38639181 103.72074799 76.38454911 105.43212891 76.38037109 C108.05246777 76.37502049 110.67263522 76.38032169 113.29296875 76.38671875 C114.95572955 76.38605794 116.61849023 76.38477672 118.28125 76.3828125 C119.06568481 76.38483673 119.85011963 76.38686096 120.6583252 76.38894653 C123.88774842 76.37501817 126.47667533 76.27860822 129.5625 75.25 C129.5625 74.59 129.5625 73.93 129.5625 73.25 C130.2225 73.25 130.8825 73.25 131.5625 73.25 C133.37882229 70.13630464 134.16663842 66.97861998 134.98828125 63.48828125 C135.96682801 59.6739459 137.27150516 55.96806514 138.5625 52.25 C139.2225 52.25 139.8825 52.25 140.5625 52.25 C140.5625 51.59 140.5625 50.93 140.5625 50.25 C141.5525 49.92 142.5425 49.59 143.5625 49.25 C142.5725 48.755 142.5725 48.755 141.5625 48.25 Z M3.5625 59.25 C7.5625 60.25 7.5625 60.25 7.5625 60.25 Z M210.5625 59.25 C210.5625 59.58 210.5625 59.91 210.5625 60.25 C212.2125 60.25 213.8625 60.25 215.5625 60.25 C215.5625 59.92 215.5625 59.59 215.5625 59.25 C213.9125 59.25 212.2625 59.25 210.5625 59.25 Z M218.5625 59.25 C222.5625 60.25 222.5625 60.25 222.5625 60.25 Z M147.5625 67.25 C148.5625 69.25 148.5625 69.25 148.5625 69.25 Z M-1.4375 70.25 C-1.4375 70.58 -1.4375 70.91 -1.4375 71.25 C0.5425 71.25 2.5225 71.25 4.5625 71.25 C4.5625 70.92 4.5625 70.59 4.5625 70.25 C2.5825 70.25 0.6025 70.25 -1.4375 70.25 Z M146.5625 70.25 C146.2325 71.9 145.9025 73.55 145.5625 75.25 C146.5525 73.93 147.5425 72.61 148.5625 71.25 C147.9025 70.92 147.2425 70.59 146.5625 70.25 Z " fill="#E5E5E5" transform="translate(142.4375,159.75)"/>
<path d="M0 0 C0.99 0 1.98 0 3 0 C3 5.28 3 10.56 3 16 C4.32 16.33 5.64 16.66 7 17 C8.16063604 21.25566547 7.76173392 24.6835078 7 29 C8.32 29.33 9.64 29.66 11 30 C11 30.66 11 31.32 11 32 C11.58031982 32.27618164 12.16063965 32.55236328 12.75854492 32.83691406 C16.51356132 34.78538353 19.86612577 37.30745301 23.3125 39.75 C24.04662109 40.26304687 24.78074219 40.77609375 25.53710938 41.3046875 C38.5761283 50.51414541 38.5761283 50.51414541 39.71875 54.51953125 C39.6465625 55.27621094 39.574375 56.03289062 39.5 56.8125 C39.42265625 57.96685547 39.42265625 57.96685547 39.34375 59.14453125 C39 61 39 61 38 62 C37.86457191 64.71370469 37.78943193 67.40556436 37.75390625 70.12109375 C37.72097204 71.79492719 37.68776032 73.46875518 37.65429688 75.14257812 C37.60681989 77.79366349 37.56239316 80.44472609 37.52319336 83.09594727 C37.48357866 85.64623234 37.43201132 88.19605902 37.37890625 90.74609375 C37.3704921 91.54196396 37.36207794 92.33783417 37.35340881 93.15782166 C37.22667352 98.77332648 37.22667352 98.77332648 35 101 C32.22937012 101.24723816 32.22937012 101.24723816 28.65429688 101.24291992 C28.00372818 101.24481827 27.35315948 101.24671661 26.68287659 101.24867249 C24.52804592 101.25238331 22.37355082 101.24167187 20.21875 101.23046875 C18.72424357 101.22927698 17.22973638 101.22882378 15.73522949 101.2290802 C12.60127074 101.2275148 9.46742613 101.21922099 6.33349609 101.20581055 C2.31156082 101.18882061 -1.71024893 101.18499619 -5.73221588 101.18575573 C-8.81879886 101.1854841 -11.90535428 101.18000402 -14.9919281 101.17275429 C-16.47513114 101.16956682 -17.9583373 101.16760003 -19.44154358 101.16686058 C-21.51251573 101.16469784 -23.58335349 101.15595508 -25.65429688 101.14526367 C-26.83407104 101.14145187 -28.01384521 101.13764008 -29.22937012 101.13371277 C-32 101 -32 101 -34 100 C-33.98839844 98.68128906 -33.97679687 97.36257813 -33.96484375 96.00390625 C-33.91254255 87.27450984 -33.93038866 78.58835169 -34.5 69.875 C-34.53746338 69.18019531 -34.57492676 68.48539062 -34.61352539 67.76953125 C-34.78110521 64.75816169 -35.02790735 61.83234762 -35.5234375 58.85546875 C-35.90954289 55.78807595 -36.0194097 53.9296549 -35 51 C-31.54377506 47.46123835 -27.78283583 44.77293597 -23.64599609 42.08837891 C-21.44290977 40.63163628 -19.38480636 39.01062812 -17.3125 37.375 C-14.24861878 35 -14.24861878 35 -12 35 C-12 34.34 -12 33.68 -12 33 C-7.61538462 30 -7.61538462 30 -5 30 C-5 29.34 -5 28.68 -5 28 C-4.34 27.34 -3.68 26.68 -3 26 C-3.66 25.01 -4.32 24.02 -5 23 C-4.8125 20.5 -4.8125 20.5 -4 18 C-3.25363281 17.41798828 -3.25363281 17.41798828 -2.4921875 16.82421875 C-0.17703621 13.993916 -0.42721709 10.82284286 -0.3125 7.3125 C-0.27833984 6.61060547 -0.24417969 5.90871094 -0.20898438 5.18554688 C-0.12670053 3.45758613 -0.0616676 1.72881928 0 0 Z M0 19 C0 19.99 0 20.98 0 22 C1.32 21.67 2.64 21.34 4 21 C3.67 20.34 3.34 19.68 3 19 C2.01 19 1.02 19 0 19 Z M-5.5625 32.875 C-6.38878906 33.40867187 -7.21507812 33.94234375 -8.06640625 34.4921875 C-8.70449219 34.98976563 -9.34257812 35.48734375 -10 36 C-10 36.66 -10 37.32 -10 38 C-10.66 38.20625 -11.32 38.4125 -12 38.625 C-15.48659949 40.22302477 -18.22051539 42.30629215 -21.23046875 44.66015625 C-23 46 -23 46 -25 47 C-25 47.66 -25 48.32 -25 49 C-7.51 49 9.98 49 28 49 C24.03300161 44.97274441 24.03300161 44.97274441 19.80859375 41.4296875 C19.25623047 41.00816406 18.70386719 40.58664062 18.13476562 40.15234375 C17.57466797 39.73082031 17.01457031 39.30929687 16.4375 38.875 C15.87353516 38.44574219 15.30957031 38.01648438 14.72851562 37.57421875 C13.15563945 36.37846494 11.57797199 35.18902104 10 34 C9.26910156 33.40445313 8.53820312 32.80890625 7.78515625 32.1953125 C5.94259919 30.72181128 5.94259919 30.72181128 3 31 C3 32.65 3 34.3 3 36 C2.01 36 1.02 36 0 36 C0 34.02 0 32.04 0 30 C-2.03847912 30 -3.92743191 31.80542494 -5.5625 32.875 Z M1 73 C1 76.3 1 79.6 1 83 C1.33 83 1.66 83 2 83 C2 79.7 2 76.4 2 73 C1.67 73 1.34 73 1 73 Z " fill="#E8E9E9" transform="translate(249,246)"/>
<path d="M0 0 C1.12341797 0.64195312 1.12341797 0.64195312 2.26953125 1.296875 C6.43975121 3.78001823 6.43975121 3.78001823 8 5 C8 5.66 8 6.32 8 7 C10.97 7.495 10.97 7.495 14 8 C14.495 9.485 14.495 9.485 15 11 C10.05 12.485 10.05 12.485 5 14 C5 14.66 5 15.32 5 16 C-1.25368035 20.47580392 -6.47909696 20.58677851 -14.03125 20.53125 C-15.18113403 20.5350769 -16.33101807 20.53890381 -17.51574707 20.54284668 C-19.93970621 20.5455609 -22.36369487 20.53823427 -24.78759766 20.52148438 C-28.48797191 20.50006961 -32.18640456 20.52130472 -35.88671875 20.546875 C-38.2474001 20.54423164 -40.60808024 20.53910649 -42.96875 20.53125 C-44.06997192 20.53934692 -45.17119385 20.54744385 -46.30578613 20.55578613 C-52.75238538 20.47747723 -56.72119213 19.77808069 -62 16 C-62 15.34 -62 14.68 -62 14 C-63.98 13.34 -65.96 12.68 -68 12 C-66.54761306 6.8129038 -64.96764788 4.60844903 -60.3125 1.8125 C-58.55143171 0.85678277 -56.78083149 -0.08163398 -55 -1 C-54.31292969 -1.39316406 -53.62585938 -1.78632813 -52.91796875 -2.19140625 C-37.08915996 -10.92787709 -15.24542818 -8.78235619 0 0 Z " fill="#ECECEC" transform="translate(279,193)"/>
<path d="M0 0 C0.99 0 1.98 0 3 0 C3 5.28 3 10.56 3 16 C4.32 16.33 5.64 16.66 7 17 C8.16063604 21.25566547 7.76173392 24.6835078 7 29 C8.32 29.33 9.64 29.66 11 30 C11 30.66 11 31.32 11 32 C11.58031982 32.27618164 12.16063965 32.55236328 12.75854492 32.83691406 C16.51356132 34.78538353 19.86612577 37.30745301 23.3125 39.75 C24.04662109 40.26304687 24.78074219 40.77609375 25.53710938 41.3046875 C38.5761283 50.51414541 38.5761283 50.51414541 39.71875 54.51953125 C39.6465625 55.27621094 39.574375 56.03289062 39.5 56.8125 C39.42265625 57.96685547 39.42265625 57.96685547 39.34375 59.14453125 C39 61 39 61 38 62 C37.83989519 64.73701178 37.74053172 67.4516759 37.68359375 70.19140625 C37.6524221 71.42116432 37.6524221 71.42116432 37.62062073 72.67576599 C37.55503506 75.30458901 37.49619874 77.93351504 37.4375 80.5625 C37.39432333 82.34050561 37.35070933 84.11850065 37.30664062 85.89648438 C37.19934457 90.26421634 37.09810296 94.63205227 37 99 C36.67 99 36.34 99 36 99 C36 87.12 36 75.24 36 63 C26.43 63 16.86 63 7 63 C7 66.96 7 70.92 7 75 C6.01 74.505 6.01 74.505 5 74 C1.62177584 73.85624578 -0.77390955 73.92463652 -4 75 C-4 71.04 -4 67.08 -4 63 C-13.57 63 -23.14 63 -33 63 C-33 68.28 -33 73.56 -33 79 C-33.33 79 -33.66 79 -34 79 C-34.27401982 74.82609088 -34.52647087 70.65466627 -34.7265625 66.4765625 C-34.86019944 63.84027012 -35.09928848 61.38796801 -35.5234375 58.7734375 C-35.91683307 55.73992055 -36.00954675 53.90131003 -35 51 C-31.54377506 47.46123835 -27.78283583 44.77293597 -23.64599609 42.08837891 C-21.44290977 40.63163628 -19.38480636 39.01062812 -17.3125 37.375 C-14.24861878 35 -14.24861878 35 -12 35 C-12 34.34 -12 33.68 -12 33 C-7.61538462 30 -7.61538462 30 -5 30 C-5 29.34 -5 28.68 -5 28 C-4.34 27.34 -3.68 26.68 -3 26 C-3.66 25.01 -4.32 24.02 -5 23 C-4.8125 20.5 -4.8125 20.5 -4 18 C-3.25363281 17.41798828 -3.25363281 17.41798828 -2.4921875 16.82421875 C-0.17703621 13.993916 -0.42721709 10.82284286 -0.3125 7.3125 C-0.27833984 6.61060547 -0.24417969 5.90871094 -0.20898438 5.18554688 C-0.12670053 3.45758613 -0.0616676 1.72881928 0 0 Z M0 19 C0 19.99 0 20.98 0 22 C1.32 21.67 2.64 21.34 4 21 C3.67 20.34 3.34 19.68 3 19 C2.01 19 1.02 19 0 19 Z M-5.5625 32.875 C-6.38878906 33.40867187 -7.21507812 33.94234375 -8.06640625 34.4921875 C-8.70449219 34.98976563 -9.34257812 35.48734375 -10 36 C-10 36.66 -10 37.32 -10 38 C-10.66 38.20625 -11.32 38.4125 -12 38.625 C-15.48659949 40.22302477 -18.22051539 42.30629215 -21.23046875 44.66015625 C-23 46 -23 46 -25 47 C-25 47.66 -25 48.32 -25 49 C-7.51 49 9.98 49 28 49 C24.03300161 44.97274441 24.03300161 44.97274441 19.80859375 41.4296875 C19.25623047 41.00816406 18.70386719 40.58664062 18.13476562 40.15234375 C17.57466797 39.73082031 17.01457031 39.30929687 16.4375 38.875 C15.87353516 38.44574219 15.30957031 38.01648438 14.72851562 37.57421875 C13.15563945 36.37846494 11.57797199 35.18902104 10 34 C9.26910156 33.40445313 8.53820312 32.80890625 7.78515625 32.1953125 C5.94259919 30.72181128 5.94259919 30.72181128 3 31 C3 32.65 3 34.3 3 36 C2.01 36 1.02 36 0 36 C0 34.02 0 32.04 0 30 C-2.03847912 30 -3.92743191 31.80542494 -5.5625 32.875 Z " fill="#7E7E7E" transform="translate(249,246)"/>
<path d="M0 0 C1.175625 0.0825 2.35125 0.165 3.5625 0.25 C5.5625 3.25 5.5625 3.25 5.5625 6.25 C6.21992188 5.96125 6.87734375 5.6725 7.5546875 5.375 C20.85015131 0.18652632 34.69757664 2.08272131 48.625 3.125 C49.67131592 3.20314941 50.71763184 3.28129883 51.7956543 3.36181641 C57.88182616 3.87106653 63.63309258 4.78153073 69.5625 6.25 C69.2325 7.24 68.9025 8.23 68.5625 9.25 C50.80009026 12.84068068 29.11563739 16.26518211 11.5625 11.25 C11.2325 16.2 10.9025 21.15 10.5625 26.25 C11.2225 26.25 11.8825 26.25 12.5625 26.25 C12.2325 26.91 11.9025 27.57 11.5625 28.25 C10.74523437 27.92257813 9.92796875 27.59515625 9.0859375 27.2578125 C4.96986876 26.08048907 1.43205666 26.02521838 -2.8125 26.125 C-3.54855469 26.13402344 -4.28460938 26.14304688 -5.04296875 26.15234375 C-6.8412888 26.17569856 -8.63943911 26.21156164 -10.4375 26.25 C-10.7675 21.63 -11.0975 17.01 -11.4375 12.25 C-12.37078125 12.40984375 -13.3040625 12.5696875 -14.265625 12.734375 C-28.38066502 14.72658785 -43.16541086 13.41721893 -57.25 11.875 C-58.41821289 11.74899414 -59.58642578 11.62298828 -60.79003906 11.49316406 C-69.04587287 10.51108475 -69.04587287 10.51108475 -72.4375 8.25 C-72.4375 7.59 -72.4375 6.93 -72.4375 6.25 C-57.90527938 3.05028102 -42.98337431 2.10174043 -28.125 1.9375 C-26.88302856 1.91115479 -26.88302856 1.91115479 -25.6159668 1.88427734 C-18.89087289 1.89107105 -12.48643829 3.22553085 -6.4375 6.25 C-5.9734375 5.0434375 -5.9734375 5.0434375 -5.5 3.8125 C-4.04106653 0.29389575 -4.04106653 0.29389575 0 0 Z M-3.4375 6.25 C-3.4375 7.24 -3.4375 8.23 -3.4375 9.25 C-2.4475 9.58 -1.4575 9.91 -0.4375 10.25 C0.2225 9.92 0.8825 9.59 1.5625 9.25 C1.5625 8.26 1.5625 7.27 1.5625 6.25 C-0.0875 6.25 -1.7375 6.25 -3.4375 6.25 Z " fill="#CDCDCD" transform="translate(142.4375,159.75)"/>
<path d="M0 0 C3.6875 -0.3125 3.6875 -0.3125 7 0 C7 0.66 7 1.32 7 2 C7.66 2 8.32 2 9 2 C9 3.32 9 4.64 9 6 C9.66 5.71125 10.32 5.4225 11 5.125 C18.17016516 2.43618807 24.46960143 1.7037848 32.0625 1.8125 C32.92166016 1.81314453 33.78082031 1.81378906 34.66601562 1.81445312 C39.5439369 1.84799116 44.16949052 2.2734825 49 3 C51.06804191 3.13234859 53.13459307 3.21278149 55.20532227 3.29125977 C62.32053727 3.56587648 68.35350163 4.22055523 75 7 C72.53880422 10.00756188 70.67026669 10.49453898 66.86328125 10.94921875 C65.82212158 11.07530518 64.78096191 11.2013916 63.70825195 11.33129883 C62.02735474 11.50761841 62.02735474 11.50761841 60.3125 11.6875 C59.16160889 11.81342529 58.01071777 11.93935059 56.82495117 12.0690918 C48.81827163 12.87670401 40.85889474 13.28545858 32.8125 13.3125 C31.82870361 13.31789795 30.84490723 13.3232959 29.83129883 13.32885742 C25.67388096 13.28734461 21.98248904 13.14516498 18.01171875 11.85546875 C17.01785156 11.57316406 16.02398437 11.29085937 15 11 C14.01 11.66 13.02 12.32 12 13 C11.01 12.67 10.02 12.34 9 12 C6.79329586 11.90550637 4.58372095 11.87010261 2.375 11.875 C0.62316406 11.87113281 0.62316406 11.87113281 -1.1640625 11.8671875 C-3.90085946 11.67644156 -3.90085946 11.67644156 -5 13 C-5.23287008 14.68183948 -5.41264166 16.3712416 -5.5625 18.0625 C-5.64628906 18.98160156 -5.73007812 19.90070313 -5.81640625 20.84765625 C-5.90728516 21.91306641 -5.90728516 21.91306641 -6 23 C-5.34 23.33 -4.68 23.66 -4 24 C-4.495 25.485 -4.495 25.485 -5 27 C-7.5625 28.1875 -7.5625 28.1875 -10 29 C-9.505 27.515 -9.505 27.515 -9 26 C-8.34 26 -7.68 26 -7 26 C-7 21.38 -7 16.76 -7 12 C-9.88556475 11.89107348 -9.88556475 11.89107348 -12.1875 12.48828125 C-15.79821437 13.14523067 -19.34296762 13.19150902 -23 13.1875 C-24.16619873 13.1862915 -24.16619873 13.1862915 -25.35595703 13.18505859 C-38.95943849 13.04759524 -52.64672545 11.59877393 -66 9 C-66 8.01 -66 7.02 -66 6 C-60.39810384 4.44005823 -55.23706138 3.65268735 -49.4375 3.4375 C-45.43233436 3.26806455 -41.51659123 3.07655368 -37.546875 2.48828125 C-25.97253509 0.89489745 -14.11337878 1.27335801 -3 5 C-2.58105469 4.18144531 -2.16210938 3.36289063 -1.73046875 2.51953125 C-1.15941406 1.68808594 -0.58835937 0.85664063 0 0 Z M1 6 C0.34 7.32 -0.32 8.64 -1 10 C1.31 10 3.62 10 6 10 C6 8.68 6 7.36 6 6 C4.35 6 2.7 6 1 6 Z " fill="#D4D4D4" transform="translate(357,160)"/>
<path d="M0 0 C9.57 0 19.14 0 29 0 C29 11.88 29 23.76 29 36 C18.11 36 7.22 36 -4 36 C-4.33 27.42 -4.66 18.84 -5 10 C-3.68 10.33 -2.36 10.66 -1 11 C-0.67 7.37 -0.34 3.74 0 0 Z " fill="#FBFCFC" transform="translate(256,309)"/>
<path d="M0 0 C0.33 0 0.66 0 1 0 C1.495 6.93 1.495 6.93 2 14 C3.97033203 13.98259766 3.97033203 13.98259766 5.98046875 13.96484375 C7.71614441 13.95546172 9.45182161 13.94636196 11.1875 13.9375 C12.05181641 13.92912109 12.91613281 13.92074219 13.80664062 13.91210938 C18.00286769 13.89603188 21.90936886 13.92440962 26 15 C26 15.33 26 15.66 26 16 C23.36 16 20.72 16 18 16 C18 16.66 18 17.32 18 18 C16.68 18.33 15.36 18.66 14 19 C13.505 18.01 13.505 18.01 13 17 C13.33 16.34 13.66 15.68 14 15 C11.6568787 15.25561323 9.32156597 15.59270772 7 16 C6.67 16.66 6.34 17.32 6 18 C10.455 18.99 10.455 18.99 15 20 C15 20.66 15 21.32 15 22 C15.69867188 21.96519531 16.39734375 21.93039063 17.1171875 21.89453125 C18.02726562 21.86746094 18.93734375 21.84039062 19.875 21.8125 C20.77992188 21.77769531 21.68484375 21.74289063 22.6171875 21.70703125 C23.79667969 21.85205078 23.79667969 21.85205078 25 22 C27.1519437 25.22791555 27.20086443 26.28400809 27 30 C27.63502441 29.87882812 28.27004883 29.75765625 28.92431641 29.6328125 C31.82350717 29.08290216 34.72420551 28.54138409 37.625 28 C38.62402344 27.80921875 39.62304688 27.6184375 40.65234375 27.421875 C54.02963979 24.94131679 54.02963979 24.94131679 59 28 C59 28.66 59 29.32 59 30 C59.66 30 60.32 30 61 30 C61 31.32 61 32.64 61 34 C50.33669775 35.68901303 39.67271277 37.37130954 29 39 C28.34 41.64 27.68 44.28 27 47 C22.62729718 48.0931757 18.48943024 48 14 48 C11.15284501 48.43354565 11.15284501 48.43354565 9 49 C5.60633122 43.62669111 5.67287658 39.13053511 6 33 C6.66 33 7.32 33 8 33 C7.505 28.545 7.505 28.545 7 24 C5.97003906 24.01160156 4.94007813 24.02320313 3.87890625 24.03515625 C-3.82495421 24.09446585 -11.49499028 24.01139299 -19.1875 23.5625 C-19.88093506 23.52326416 -20.57437012 23.48402832 -21.28881836 23.44360352 C-25.24711835 23.19238238 -29.10049081 22.7216821 -33 22 C-33 21.01 -33 20.02 -33 19 C-25.1839773 17.28840584 -17.8002077 16.74178614 -9.8125 16.875 C-8.76513672 16.88402344 -7.71777344 16.89304688 -6.63867188 16.90234375 C-4.09219486 16.92559925 -1.54622969 16.95827431 1 17 C0.505 16.01 0.505 16.01 0 15 C-0.0716735 12.44842345 -0.09308442 9.92527029 -0.0625 7.375 C-0.05798828 6.66859375 -0.05347656 5.9621875 -0.04882812 5.234375 C-0.03703875 3.48954725 -0.01910324 1.744763 0 0 Z M18 31 C22 32 22 32 22 32 Z M13 42 C13 42.33 13 42.66 13 43 C14.98 43 16.96 43 19 43 C19 42.67 19 42.34 19 42 C17.02 42 15.04 42 13 42 Z " fill="#D9D9D9" transform="translate(128,188)"/>
<path d="M0 0 C1.30710937 0.00644531 2.61421875 0.01289063 3.9609375 0.01953125 C6.99117548 0.15844408 9.68684619 0.47848605 12.625 1.1875 C12.625 1.5175 12.625 1.8475 12.625 2.1875 C8.665 2.1875 4.705 2.1875 0.625 2.1875 C-0.035 4.1675 -0.695 6.1475 -1.375 8.1875 C-0.055 7.8575 1.265 7.5275 2.625 7.1875 C2.625 6.5275 2.625 5.8675 2.625 5.1875 C6.891285 3.57543659 10.4311078 2.93140351 14.984375 2.921875 C16.18320312 2.91929687 17.38203125 2.91671875 18.6171875 2.9140625 C19.85726562 2.92179688 21.09734375 2.92953125 22.375 2.9375 C23.59960938 2.92976562 24.82421875 2.92203125 26.0859375 2.9140625 C33.17219241 2.92923649 39.74836521 3.43947297 46.625 5.1875 C46.625 6.1775 46.625 7.1675 46.625 8.1875 C41.9072682 9.06883451 37.22297594 9.48927704 32.4375 9.75 C31.68936035 9.7910083 30.9412207 9.8320166 30.17041016 9.87426758 C12.89512576 10.7724336 12.89512576 10.7724336 5.625 8.1875 C6.1509375 8.991875 6.1509375 8.991875 6.6875 9.8125 C7.90898546 12.90692983 7.18595671 14.9619989 6.625 18.1875 C7.285 18.8475 7.945 19.5075 8.625 20.1875 C8.8203125 22.3515625 8.8203125 22.3515625 8.75 24.8125 C8.73195313 25.62976563 8.71390625 26.44703125 8.6953125 27.2890625 C8.67210937 27.91554687 8.64890625 28.54203125 8.625 29.1875 C7.635 29.6825 7.635 29.6825 6.625 30.1875 C6.625 31.1775 6.625 32.1675 6.625 33.1875 C3.58793391 33.25812944 0.90594859 33.25283688 -2.0625 32.5625 C-4.64330141 31.87472576 -4.64330141 31.87472576 -7.375 34.1875 C-10.0625 33.8125 -10.0625 33.8125 -12.375 33.1875 C-12.5296875 32.0428125 -12.5296875 32.0428125 -12.6875 30.875 C-13.45006523 27.89406318 -14.01211693 27.07044834 -16.375 25.1875 C-18.51490239 24.53858654 -18.51490239 24.53858654 -20.91015625 24.30859375 C-21.80283203 24.19193359 -22.69550781 24.07527344 -23.61523438 23.95507812 C-25.01225586 23.79168945 -25.01225586 23.79168945 -26.4375 23.625 C-33.48923812 22.74541755 -40.4242221 21.67930541 -47.375 20.1875 C-47.375 18.8675 -47.375 17.5475 -47.375 16.1875 C-46.715 16.1875 -46.055 16.1875 -45.375 16.1875 C-45.375 15.5275 -45.375 14.8675 -45.375 14.1875 C-42.44469802 12.48962928 -40.66804246 11.95479595 -37.3125 12.375 C-36.45785156 12.48070312 -35.60320312 12.58640625 -34.72265625 12.6953125 C-27.2625492 13.79213104 -19.81671818 14.97268153 -12.375 16.1875 C-12.375 13.8775 -12.375 11.5675 -12.375 9.1875 C-9.735 8.1975 -7.095 7.2075 -4.375 6.1875 C-4.375 4.8675 -4.375 3.5475 -4.375 2.1875 C-6.355 2.1875 -8.335 2.1875 -10.375 2.1875 C-6.60154443 -0.32813705 -4.49765107 -0.04859937 0 0 Z M-7.375 17.1875 C-7.375 17.5175 -7.375 17.8475 -7.375 18.1875 C-5.725 18.1875 -4.075 18.1875 -2.375 18.1875 C-2.375 17.8575 -2.375 17.5275 -2.375 17.1875 C-4.025 17.1875 -5.675 17.1875 -7.375 17.1875 Z M0.625 17.1875 C4.625 18.1875 4.625 18.1875 4.625 18.1875 Z " fill="#E4E5E4" transform="translate(360.375,201.8125)"/>
<path d="M0 0 C2.89932357 2.39509338 3.50168276 4.31245243 4 8 C3.34 7.67 2.68 7.34 2 7 C2.350625 7.70125 2.70125 8.4025 3.0625 9.125 C4.25478581 12.78134315 4.1183438 14.29548615 3 18 C1.61252937 20.49393455 0.11544628 22.90406741 -1.390625 25.328125 C-7.49485514 35.46233232 -10.60869891 46.75393281 -14 58 C-13.34 58 -12.68 58 -12 58 C-11.61936779 60.3260857 -11.28730055 62.66055264 -11 65 C-12 66 -12 66 -14.6875 66.1328125 C-15.780625 66.13023437 -16.87375 66.12765625 -18 66.125 C-19.093125 66.12757813 -20.18625 66.13015625 -21.3125 66.1328125 C-24 66 -24 66 -25 65 C-24.71269945 62.66055264 -24.38063221 60.3260857 -24 58 C-23.34 58 -22.68 58 -22 58 C-21.9175 56.865625 -21.835 55.73125 -21.75 54.5625 C-19.70569028 36.69579313 -13.6897287 17.2646411 -4 2 C-1.7890625 0.6171875 -1.7890625 0.6171875 0 0 Z " fill="#C4C4C4" transform="translate(210,225)"/>
<path d="M0 0 C3.30584836 1.36006114 4.62176537 2.49672125 6.1484375 5.71875 C6.51114746 6.47704102 6.87385742 7.23533203 7.24755859 8.01660156 C7.61961426 8.83612305 7.99166992 9.65564453 8.375 10.5 C8.7663916 11.34788086 9.1577832 12.19576172 9.56103516 13.06933594 C15.83143186 26.95948782 22.52351111 43.49825432 22 59 C23.485 59.495 23.485 59.495 25 60 C25.04254356 61.99954746 25.04080783 64.00041636 25 66 C23.26150372 67.73849628 20.9213363 67.17216296 18.5625 67.1875 C17.57378906 67.20167969 16.58507812 67.21585937 15.56640625 67.23046875 C13 67 13 67 11 65 C11.375 61.875 11.375 61.875 12 59 C12.66 59 13.32 59 14 59 C10.1224279 44.56185134 5.58879286 30.49359791 -3.03125 18.11328125 C-4.29780414 15.35035467 -3.84225426 13.86744988 -3 11 C-1.97461426 7.92823742 -1.97461426 7.92823742 -3 5 C-1.5625 2.375 -1.5625 2.375 0 0 Z M-1 3 C0 5 0 5 0 5 Z " fill="#CECECE" transform="translate(291,224)"/>
<path d="M0 0 C2.06804317 0.13171118 4.13462955 0.21278287 6.20532227 0.29125977 C13.32053727 0.56587648 19.35350163 1.22055523 26 4 C23.53880422 7.00756188 21.67026669 7.49453898 17.86328125 7.94921875 C16.82220215 8.07538574 15.78112305 8.20155273 14.70849609 8.33154297 C13.02747803 8.5077417 13.02747803 8.5077417 11.3125 8.6875 C10.16088379 8.8127002 9.00926758 8.93790039 7.82275391 9.06689453 C-0.15886534 9.86778056 -8.10397455 10.31266532 -16.125 10.375 C-17.58812622 10.39566528 -17.58812622 10.39566528 -19.08081055 10.41674805 C-25.10924392 10.37735339 -29.46070161 9.35753509 -35 7 C-37.34030656 6.51807312 -39.61949739 6.24796902 -42 6 C-42.33 5.01 -42.66 4.02 -43 3 C-28.63205899 -1.49499831 -14.89215699 -2.1855384 0 0 Z " fill="#D9D9D9" transform="translate(406,163)"/>
<path d="M0 0 C0 0.66 0 1.32 0 2 C-3.63 2.66 -7.26 3.32 -11 4 C-11 4.66 -11 5.32 -11 6 C-24.1383188 9.75112063 -40.48310941 7.08718232 -53.8125 5.625 C-54.98047119 5.49899414 -56.14844238 5.37298828 -57.35180664 5.24316406 C-65.60813308 4.26124461 -65.60813308 4.26124461 -69 2 C-69 1.34 -69 0.68 -69 0 C-46.95004882 -4.85498047 -21.64841046 -7.44891543 0 0 Z " fill="#D4D4D4" transform="translate(139,166)"/>
<path d="M0 0 C1.96066406 0.00966797 1.96066406 0.00966797 3.9609375 0.01953125 C6.99117548 0.15844408 9.68684619 0.47848605 12.625 1.1875 C12.625 1.5175 12.625 1.8475 12.625 2.1875 C8.665 2.1875 4.705 2.1875 0.625 2.1875 C-0.035 4.1675 -0.695 6.1475 -1.375 8.1875 C-0.055 7.8575 1.265 7.5275 2.625 7.1875 C2.625 6.5275 2.625 5.8675 2.625 5.1875 C6.891285 3.57543659 10.4311078 2.93140351 14.984375 2.921875 C16.18320312 2.91929687 17.38203125 2.91671875 18.6171875 2.9140625 C19.85726562 2.92179688 21.09734375 2.92953125 22.375 2.9375 C23.59960938 2.92976562 24.82421875 2.92203125 26.0859375 2.9140625 C33.17219241 2.92923649 39.74836521 3.43947297 46.625 5.1875 C46.625 6.1775 46.625 7.1675 46.625 8.1875 C41.9072682 9.06883451 37.22297594 9.48927704 32.4375 9.75 C31.68936035 9.7910083 30.9412207 9.8320166 30.17041016 9.87426758 C12.89512576 10.7724336 12.89512576 10.7724336 5.625 8.1875 C6.181875 8.9609375 6.181875 8.9609375 6.75 9.75 C8.02831649 13.31102451 6.83050735 15.7049232 5.625 19.1875 C2.985 19.1875 0.345 19.1875 -2.375 19.1875 C-2.375 18.5275 -2.375 17.8675 -2.375 17.1875 C-3.3959375 17.435 -3.3959375 17.435 -4.4375 17.6875 C-9.45506077 18.5415529 -13.95095232 19.01889051 -18.375 16.1875 C-16.395 16.1875 -14.415 16.1875 -12.375 16.1875 C-12.375 13.8775 -12.375 11.5675 -12.375 9.1875 C-9.735 8.1975 -7.095 7.2075 -4.375 6.1875 C-4.375 4.8675 -4.375 3.5475 -4.375 2.1875 C-6.355 2.1875 -8.335 2.1875 -10.375 2.1875 C-6.60154443 -0.32813705 -4.49765107 -0.04859937 0 0 Z M0.625 17.1875 C4.625 18.1875 4.625 18.1875 4.625 18.1875 Z " fill="#CCCCCC" transform="translate(360.375,201.8125)"/>
<path d="M0 0 C0.66 0.33 1.32 0.66 2 1 C1.34 1.66 0.68 2.32 0 3 C-0.33 5.97 -0.66 8.94 -1 12 C8.9 12 18.8 12 29 12 C29 8.37 29 4.74 29 1 C32.63 1 36.26 1 40 1 C40 4.63 40 8.26 40 12 C49.9 12 59.8 12 70 12 C69.505 6.555 69.505 6.555 69 1 C69.99 1.66 70.98 2.32 72 3 C72.328125 5.12890625 72.328125 5.12890625 72.25 7.5625 C72.23453125 8.36816406 72.2190625 9.17382812 72.203125 10.00390625 C72 12 72 12 71 13 C70.83989519 15.73701178 70.74053172 18.4516759 70.68359375 21.19140625 C70.6524221 22.42116432 70.6524221 22.42116432 70.62062073 23.67576599 C70.55503506 26.30458901 70.49619874 28.93351504 70.4375 31.5625 C70.39432333 33.34050561 70.35070933 35.11850065 70.30664062 36.89648438 C70.19934457 41.26421634 70.09810296 45.63205227 70 50 C69.67 50 69.34 50 69 50 C69 38.12 69 26.24 69 14 C59.43 14 49.86 14 40 14 C40 17.96 40 21.92 40 26 C39.34 25.67 38.68 25.34 38 25 C34.62177584 24.85624578 32.22609045 24.92463652 29 26 C29 22.04 29 18.08 29 14 C19.43 14 9.86 14 0 14 C0 19.28 0 24.56 0 30 C-0.33 30 -0.66 30 -1 30 C-2.53361584 6.63974448 -2.53361584 6.63974448 -2 2 C-1.34 1.34 -0.68 0.68 0 0 Z " fill="#2E6268" transform="translate(216,295)"/>
<path d="M0 0 C1 2 1 2 1 11 C-8.9 11 -18.8 11 -29 11 C-29 7.37 -29 3.74 -29 0 C-24.91689067 -0.19457632 -20.83369152 -0.38095279 -16.75 -0.5625 C-15.59113281 -0.61857422 -14.43226563 -0.67464844 -13.23828125 -0.73242188 C-12.12324219 -0.78076172 -11.00820313 -0.82910156 -9.859375 -0.87890625 C-8.31975098 -0.94960327 -8.31975098 -0.94960327 -6.74902344 -1.02172852 C-4.25617945 -1.00202486 -2.32998387 -0.86888143 0 0 Z " fill="#F7FAFA" transform="translate(285,296)"/>
<path d="M0 0 C0.99 0.33 1.98 0.66 3 1 C4.84610532 1.08239169 6.69505164 1.10743359 8.54296875 1.09765625 C10.15268555 1.09282227 10.15268555 1.09282227 11.79492188 1.08789062 C12.91447266 1.07951172 14.03402344 1.07113281 15.1875 1.0625 C16.31865234 1.05798828 17.44980469 1.05347656 18.61523438 1.04882812 C21.41017876 1.03703511 24.20509599 1.01909957 27 1 C27 4.63 27 8.26 27 12 C17.1 12 7.2 12 -3 12 C-3 9.03 -3 6.06 -3 3 C-2.01 2.01 -1.02 1.02 0 0 Z " fill="#F7FAFA" transform="translate(218,295)"/>
<path d="M0 0 C0.33 0 0.66 0 1 0 C1.495 6.93 1.495 6.93 2 14 C3.97033203 13.98259766 3.97033203 13.98259766 5.98046875 13.96484375 C7.71614441 13.95546172 9.45182161 13.94636196 11.1875 13.9375 C12.05181641 13.92912109 12.91613281 13.92074219 13.80664062 13.91210938 C18.00286769 13.89603188 21.90936886 13.92440962 26 15 C26 15.33 26 15.66 26 16 C23.36 16 20.72 16 18 16 C18 16.66 18 17.32 18 18 C16.68 18.33 15.36 18.66 14 19 C13.505 18.01 13.505 18.01 13 17 C13.33 16.34 13.66 15.68 14 15 C11.6568787 15.25561323 9.32156597 15.59270772 7 16 C6.67 16.66 6.34 17.32 6 18 C10.455 18.99 10.455 18.99 15 20 C15 20.66 15 21.32 15 22 C18.3 22 21.6 22 25 22 C25 22.33 25 22.66 25 23 C21.22933539 23.17063063 17.45844778 23.33575625 13.6875 23.5 C12.63498047 23.54769531 11.58246094 23.59539062 10.49804688 23.64453125 C0.70284319 24.06647849 -9.02482903 24.17365932 -18.8125 23.5625 C-19.52341797 23.52318359 -20.23433594 23.48386719 -20.96679688 23.44335938 C-25.03616829 23.19912194 -28.99283079 22.74859205 -33 22 C-33 21.01 -33 20.02 -33 19 C-25.1839773 17.28840584 -17.8002077 16.74178614 -9.8125 16.875 C-8.76513672 16.88402344 -7.71777344 16.89304688 -6.63867188 16.90234375 C-4.09219486 16.92559925 -1.54622969 16.95827431 1 17 C0.505 16.01 0.505 16.01 0 15 C-0.0716735 12.44842345 -0.09308442 9.92527029 -0.0625 7.375 C-0.05798828 6.66859375 -0.05347656 5.9621875 -0.04882812 5.234375 C-0.03703875 3.48954725 -0.01910324 1.744763 0 0 Z " fill="#BEBEBE" transform="translate(128,188)"/>
<path d="M0 0 C1.20527344 0.00064453 2.41054688 0.00128906 3.65234375 0.00195312 C4.90917969 0.01806641 6.16601562 0.03417969 7.4609375 0.05078125 C8.69457031 0.04755859 9.92820312 0.04433594 11.19921875 0.04101562 C18.30908391 0.08257169 24.93597017 0.61375397 31.8359375 2.36328125 C31.8359375 3.35328125 31.8359375 4.34328125 31.8359375 5.36328125 C27.11813169 6.24462959 22.43391476 6.66446193 17.6484375 6.92578125 C16.52840332 6.98838135 16.52840332 6.98838135 15.38574219 7.05224609 C-0.35757744 7.88387898 -0.35757744 7.88387898 -7.1640625 6.36328125 C-7.1640625 5.70328125 -7.1640625 5.04328125 -7.1640625 4.36328125 C-8.1540625 4.03328125 -9.1440625 3.70328125 -10.1640625 3.36328125 C-6.80434781 0.28955376 -4.49497738 -0.01231045 0 0 Z " fill="#B9B8B8" transform="translate(375.1640625,204.63671875)"/>
<path d="M0 0 C1.24652344 -0.01417969 2.49304688 -0.02835938 3.77734375 -0.04296875 C7.0625 0.1875 7.0625 0.1875 10.0625 2.1875 C10.47644695 5.55426852 10.19337567 8.78473255 10.0625 12.1875 C3.7925 12.1875 -2.4775 12.1875 -8.9375 12.1875 C-8.9375 8.5575 -8.9375 4.9275 -8.9375 1.1875 C-5.98162889 -0.29043555 -3.28752355 0.01696349 0 0 Z " fill="#F7F7F7" transform="translate(141.9375,170.8125)"/>
<path d="M0 0 C1.14726562 0.00515625 2.29453125 0.0103125 3.4765625 0.015625 C5.18972656 0.00789062 5.18972656 0.00789062 6.9375 0 C10.1015625 0.265625 10.1015625 0.265625 14.1015625 2.265625 C14.1015625 5.565625 14.1015625 8.865625 14.1015625 12.265625 C7.8315625 12.265625 1.5615625 12.265625 -4.8984375 12.265625 C-5.09375 4.6484375 -5.09375 4.6484375 -4.8984375 2.265625 C-2.8984375 0.265625 -2.8984375 0.265625 0 0 Z " fill="#F7F7F7" transform="translate(355.8984375,170.734375)"/>
<path d="M0 0 C1.175625 0.0825 2.35125 0.165 3.5625 0.25 C5.5625 3.25 5.5625 3.25 5.5625 6.25 C4.5725 6.25 3.5825 6.25 2.5625 6.25 C3.5525 7.735 3.5525 7.735 4.5625 9.25 C7.1042707 9.41671852 7.1042707 9.41671852 9.5625 9.25 C10.5625 10.25 10.5625 10.25 10.66015625 13.84765625 C10.6534822 15.33596867 10.64152183 16.82426432 10.625 18.3125 C10.62048828 19.07111328 10.61597656 19.82972656 10.61132812 20.61132812 C10.5995068 22.49091871 10.58157078 24.37046899 10.5625 26.25 C11.2225 26.25 11.8825 26.25 12.5625 26.25 C12.2325 26.91 11.9025 27.57 11.5625 28.25 C10.74523437 27.92257813 9.92796875 27.59515625 9.0859375 27.2578125 C4.96986876 26.08048907 1.43205666 26.02521838 -2.8125 26.125 C-3.91658203 26.13853516 -3.91658203 26.13853516 -5.04296875 26.15234375 C-6.8412888 26.17569856 -8.63943911 26.21156164 -10.4375 26.25 C-10.47488281 25.26257813 -10.51226562 24.27515625 -10.55078125 23.2578125 C-10.61652344 21.97648437 -10.68226563 20.69515625 -10.75 19.375 C-10.80800781 18.09882813 -10.86601562 16.82265625 -10.92578125 15.5078125 C-11.09464844 14.43273437 -11.26351562 13.35765625 -11.4375 12.25 C-12.4275 11.59 -13.4175 10.93 -14.4375 10.25 C-12.71077966 9.88409254 -10.98096345 9.53277805 -9.25 9.1875 C-8.28707031 8.99027344 -7.32414063 8.79304687 -6.33203125 8.58984375 C-3.40139138 8.24576053 -1.27442932 8.50835303 1.5625 9.25 C1.5625 8.26 1.5625 7.27 1.5625 6.25 C-1.0775 6.25 -3.7175 6.25 -6.4375 6.25 C-4.14973022 0.30179856 -4.14973022 0.30179856 0 0 Z M-9.4375 12.25 C-9.4375 15.88 -9.4375 19.51 -9.4375 23.25 C-4.8175 22.92 -0.1975 22.59 4.5625 22.25 C4.5625 22.91 4.5625 23.57 4.5625 24.25 C6.2125 23.92 7.8625 23.59 9.5625 23.25 C9.64340971 21.62581255 9.70164995 20.00048255 9.75 18.375 C9.78480469 17.47007812 9.81960937 16.56515625 9.85546875 15.6328125 C9.71044922 14.45332031 9.71044922 14.45332031 9.5625 13.25 C5.86008718 10.78172478 3.9033889 11.01240974 -0.5 11.0625 C-1.74910156 11.06894531 -2.99820313 11.07539063 -4.28515625 11.08203125 C-7.33905979 11.03453442 -7.33905979 11.03453442 -9.4375 12.25 Z " fill="#383838" transform="translate(142.4375,159.75)"/>
<path d="M0 0 C9.24 0 18.48 0 28 0 C28 1.98 28 3.96 28 6 C21.86000832 6.82653734 15.75107968 7.13149475 9.5625 7.1875 C8.51545898 7.20683594 8.51545898 7.20683594 7.44726562 7.2265625 C3.73427863 7.23379324 2.17247929 7.1149862 -1 5 C-0.67 3.35 -0.34 1.7 0 0 Z " fill="#1498A3" transform="translate(237,222)"/>
<path d="M0 0 C1.32 0.33 2.64 0.66 4 1 C4 1.66 4 2.32 4 3 C4.57814453 3.27473145 5.15628906 3.54946289 5.75195312 3.83251953 C9.57384867 5.81734843 12.99039761 8.39027301 16.5 10.875 C17.25925781 11.40480469 18.01851563 11.93460937 18.80078125 12.48046875 C19.53683594 12.99996094 20.27289063 13.51945312 21.03125 14.0546875 C21.69705078 14.52374512 22.36285156 14.99280273 23.04882812 15.47607422 C25 17 25 17 29 21 C7.88 21 -13.24 21 -35 21 C-34.67 20.34 -34.34 19.68 -34 19 C-16.18 19 1.64 19 20 19 C9.53941868 10.94513474 9.53941868 10.94513474 -1 3 C-0.67 2.01 -0.34 1.02 0 0 Z " fill="#505152" transform="translate(256,275)"/>
<path d="M0 0 C2.64 0 5.28 0 8 0 C8 7.26 8 14.52 8 22 C7.67 21.34 7.34 20.68 7 20 C4.69 20 2.38 20 0 20 C0 13.4 0 6.8 0 0 Z " fill="#02E3FA" transform="translate(247,297)"/>
<path d="M0 0 C0 2.83967231 -0.40267181 5.23735711 -1 8 C-5.37270282 9.0931757 -9.51056976 9 -14 9 C-16.84715499 9.43354565 -16.84715499 9.43354565 -19 10 C-19.99 7.69 -20.98 5.38 -22 3 C-21.05362671 2.91697632 -21.05362671 2.91697632 -20.08813477 2.83227539 C-17.2458232 2.5803188 -14.40417781 2.32150231 -11.5625 2.0625 C-10.56927734 1.97548828 -9.57605469 1.88847656 -8.55273438 1.79882812 C-7.13637695 1.66831055 -7.13637695 1.66831055 -5.69140625 1.53515625 C-4.81685791 1.456604 -3.94230957 1.37805176 -3.04125977 1.29711914 C-1.00985544 1.20914952 -1.00985544 1.20914952 0 0 Z M-15 3 C-15 3.33 -15 3.66 -15 4 C-13.02 4 -11.04 4 -9 4 C-9 3.67 -9 3.34 -9 3 C-10.98 3 -12.96 3 -15 3 Z " fill="#15D0DA" transform="translate(156,227)"/>
<path d="M0 0 C1.48831242 0.00667405 2.97660807 0.01863442 4.46484375 0.03515625 C5.22345703 0.03966797 5.98207031 0.04417969 6.76367188 0.04882812 C8.64326246 0.06064945 10.52281274 0.07858547 12.40234375 0.09765625 C12.40234375 2.40765625 12.40234375 4.71765625 12.40234375 7.09765625 C3.98734375 7.59265625 3.98734375 7.59265625 -4.59765625 8.09765625 C-4.59765625 0.12480066 -4.59765625 0.12480066 0 0 Z " fill="#F0F0F0" transform="translate(140.59765625,210.90234375)"/>
<path d="M0 0 C0.33 0 0.66 0 1 0 C1 2.97 1 5.94 1 9 C0.01 9.495 0.01 9.495 -1 10 C-1 10.99 -1 11.98 -1 13 C-4.03706609 13.07062944 -6.71905141 13.06533688 -9.6875 12.375 C-12.26830141 11.68722576 -12.26830141 11.68722576 -15 14 C-17.6875 13.625 -17.6875 13.625 -20 13 C-20.144375 12.21625 -20.28875 11.4325 -20.4375 10.625 C-20.87798925 8.03578982 -20.87798925 8.03578982 -22 6 C-19.45805839 6.14188985 -16.91652007 6.28839155 -14.375 6.4375 C-13.30572266 6.49647461 -13.30572266 6.49647461 -12.21484375 6.55664062 C-8.08196318 6.80309681 -4.07730976 7.23470053 0 8 C0 5.36 0 2.72 0 0 Z " fill="#375253" transform="translate(368,222)"/>
<path d="M0 0 C4.29455523 0.4771728 8.36939596 1.08550352 12.5625 2.125 C19.35369057 3.57038641 26.15436673 2.67543582 33 2 C32.34 3.98 31.68 5.96 31 8 C33.475 8.99 33.475 8.99 36 10 C35.01 10.66 34.02 11.32 33 12 C30.80859375 11.390625 30.80859375 11.390625 28.4375 10.25 C27.65246094 9.88390625 26.86742187 9.5178125 26.05859375 9.140625 C24 8 24 8 22 6 C19.59666281 5.41878182 17.24304327 4.92739988 14.8125 4.5 C9.7618467 3.57345941 4.90971592 2.47737236 0 1 C0 0.67 0 0.34 0 0 Z " fill="#8C8C8C" transform="translate(181,197)"/>
<path d="M0 0 C2.4375 0.1875 2.4375 0.1875 3.4375 1.1875 C3.51069621 3.88404854 3.52992537 6.55441458 3.5 9.25 C3.49548828 10.00861328 3.49097656 10.76722656 3.48632812 11.54882812 C3.4745068 13.42841871 3.45657078 15.30796899 3.4375 17.1875 C4.0975 17.1875 4.7575 17.1875 5.4375 17.1875 C5.1075 17.8475 4.7775 18.5075 4.4375 19.1875 C3.62023437 18.86007813 2.80296875 18.53265625 1.9609375 18.1953125 C-2.15513124 17.01798907 -5.69294334 16.96271838 -9.9375 17.0625 C-10.67355469 17.07152344 -11.40960938 17.08054688 -12.16796875 17.08984375 C-13.9662888 17.11319856 -15.76443911 17.14906164 -17.5625 17.1875 C-17.0675 16.713125 -16.5725 16.23875 -16.0625 15.75 C-14.44707803 14.42826302 -14.44707803 14.42826302 -14.5625 13.1875 C-10.6025 13.1875 -6.6425 13.1875 -2.5625 13.1875 C-2.5625 13.8475 -2.5625 14.5075 -2.5625 15.1875 C-0.9125 14.8575 0.7375 14.5275 2.4375 14.1875 C1.9425 9.2375 1.9425 9.2375 1.4375 4.1875 C-0.5425 3.5275 -2.5225 2.8675 -4.5625 2.1875 C-2.5625 0.1875 -2.5625 0.1875 0 0 Z " fill="#282828" transform="translate(149.5625,168.8125)"/>
<path d="M0 0 C0.99 0 1.98 0 3 0 C3 5.28 3 10.56 3 16 C3.66 16 4.32 16 5 16 C5.33 17.65 5.66 19.3 6 21 C3.69 20.67 1.38 20.34 -1 20 C-1.66 20.99 -2.32 21.98 -3 23 C-2.125 16.125 -2.125 16.125 -1 15 C-0.76346477 12.47403741 -0.57826308 9.96892793 -0.4375 7.4375 C-0.39431641 6.72658203 -0.35113281 6.01566406 -0.30664062 5.28320312 C-0.20028223 3.52238088 -0.09961154 1.7612168 0 0 Z " fill="#9C9C9C" transform="translate(249,246)"/>
<path d="M0 0 C1.99788438 0.34578768 3.99759451 0.68143549 6 1 C6.33 0.34 6.66 -0.32 7 -1 C9.31 -0.67 11.62 -0.34 14 0 C13.67 1.32 13.34 2.64 13 4 C12.47792969 3.83757812 11.95585937 3.67515625 11.41796875 3.5078125 C8.34538339 2.86251994 5.4504938 2.86797202 2.3125 2.875 C0.57419922 2.87113281 0.57419922 2.87113281 -1.19921875 2.8671875 C-3.90499156 2.68071827 -3.90499156 2.68071827 -5 4 C-5.23287008 5.68183948 -5.41264166 7.3712416 -5.5625 9.0625 C-5.68818359 10.44115234 -5.68818359 10.44115234 -5.81640625 11.84765625 C-5.87699219 12.55792969 -5.93757813 13.26820313 -6 14 C-5.34 14.33 -4.68 14.66 -4 15 C-4.33 15.99 -4.66 16.98 -5 18 C-7.5625 19.1875 -7.5625 19.1875 -10 20 C-9.505 18.515 -9.505 18.515 -9 17 C-8.34 17 -7.68 17 -7 17 C-7 16.02417969 -7 15.04835937 -7 14.04296875 C-7 9.36197917 -7 4.68098958 -7 0 C-3.70955471 -1.0968151 -3.16885176 -0.90538622 0 0 Z " fill="#262626" transform="translate(357,169)"/>
<path d="M0 0 C-1.47803797 1.47803797 -2.9114518 1.38312477 -4.96484375 1.68359375 C-6.16463867 1.86825195 -6.16463867 1.86825195 -7.38867188 2.05664062 C-9.08350186 2.30989108 -10.77881814 2.55990887 -12.47460938 2.80664062 C-13.67633789 2.99323242 -13.67633789 2.99323242 -14.90234375 3.18359375 C-15.63960693 3.29243896 -16.37687012 3.40128418 -17.13647461 3.51342773 C-19.22913175 3.89211117 -19.22913175 3.89211117 -21 6 C-22.52056618 6.59834554 -24.06612088 7.13506656 -25.625 7.625 C-26.44226563 7.88539063 -27.25953125 8.14578125 -28.1015625 8.4140625 C-28.72804688 8.60742188 -29.35453125 8.80078125 -30 9 C-30 9.66 -30 10.32 -30 11 C-32 10 -32 10 -33 8 C-31.70990357 7.49596232 -30.41786211 6.99690074 -29.125 6.5 C-28.04605469 6.08234375 -28.04605469 6.08234375 -26.9453125 5.65625 C-25 5 -25 5 -23 5 C-23.89335797 2.64214682 -23.89335797 2.64214682 -27.0625 1.875 C-28.031875 1.58625 -29.00125 1.2975 -30 1 C-26.58582556 -0.10839313 -23.91321459 0.11905622 -20.375 0.5625 C-15.26386592 1.06861474 -11.10350287 0.69426743 -6.15625 -0.625 C-3.77687585 -1.0388042 -2.2753699 -0.74466651 0 0 Z " fill="#6B6B6B" transform="translate(317,199)"/>
<path d="M0 0 C0.33 0 0.66 0 1 0 C1.33 4.62 1.66 9.24 2 14 C3.31355469 13.98839844 4.62710938 13.97679687 5.98046875 13.96484375 C7.71614441 13.95546172 9.45182161 13.94636196 11.1875 13.9375 C12.05181641 13.92912109 12.91613281 13.92074219 13.80664062 13.91210938 C18.00286769 13.89603188 21.90936886 13.92440962 26 15 C26 15.33 26 15.66 26 16 C23.36 16 20.72 16 18 16 C18 16.66 18 17.32 18 18 C16.68 18.33 15.36 18.66 14 19 C13.67 18.34 13.34 17.68 13 17 C13.33 16.34 13.66 15.68 14 15 C11.6568787 15.25561323 9.32156597 15.59270772 7 16 C6.67 16.66 6.34 17.32 6 18 C6.66 18.33 7.32 18.66 8 19 C5.125 18.6875 5.125 18.6875 2 18 C-0.45391569 14.31912647 -0.22802759 11.55644412 -0.125 7.3125 C-0.11597656 6.61060547 -0.10695313 5.90871094 -0.09765625 5.18554688 C-0.07413704 3.45688475 -0.03826713 1.72839855 0 0 Z " fill="#19201F" transform="translate(128,188)"/>
<path d="M0 0 C3.6875 -0.3125 3.6875 -0.3125 7 0 C7 0.66 7 1.32 7 2 C7.66 2 8.32 2 9 2 C9 3.32 9 4.64 9 6 C6.36 6 3.72 6 1 6 C0.67 6.66 0.34 7.32 0 8 C0 7.34 0 6.68 0 6 C-0.99 5.67 -1.98 5.34 -3 5 C-1.9375 2.5 -1.9375 2.5 0 0 Z " fill="#1B1B1B" transform="translate(357,160)"/>
<path d="M0 0 C0 2.83967231 -0.40267181 5.23735711 -1 8 C-1.33 7.01 -1.66 6.02 -2 5 C-8.27 5 -14.54 5 -21 5 C-21.33 4.34 -21.66 3.68 -22 3 C-21.05362671 2.91697632 -21.05362671 2.91697632 -20.08813477 2.83227539 C-17.2458232 2.5803188 -14.40417781 2.32150231 -11.5625 2.0625 C-10.56927734 1.97548828 -9.57605469 1.88847656 -8.55273438 1.79882812 C-7.13637695 1.66831055 -7.13637695 1.66831055 -5.69140625 1.53515625 C-4.81685791 1.456604 -3.94230957 1.37805176 -3.04125977 1.29711914 C-1.00985544 1.20914952 -1.00985544 1.20914952 0 0 Z M-15 3 C-15 3.33 -15 3.66 -15 4 C-13.02 4 -11.04 4 -9 4 C-9 3.67 -9 3.34 -9 3 C-10.98 3 -12.96 3 -15 3 Z " fill="#263B3D" transform="translate(156,227)"/>
<path d="M0 0 C0.66 0.66 1.32 1.32 2 2 C1.625 5.625 1.625 5.625 1 9 C-0.98 9 -2.96 9 -5 9 C-5 9.33 -5 9.66 -5 10 C-9.62 10.33 -14.24 10.66 -19 11 C-18.34 10.67 -17.68 10.34 -17 10 C-17 9.34 -17 8.68 -17 8 C-15.35 8.33 -13.7 8.66 -12 9 C-12 8.34 -12 7.68 -12 7 C-8.04 7 -4.08 7 0 7 C0 4.69 0 2.38 0 0 Z " fill="#232323" transform="translate(153,211)"/>
<path d="M0 0 C1.96066406 0.00966797 1.96066406 0.00966797 3.9609375 0.01953125 C6.99117548 0.15844408 9.68684619 0.47848605 12.625 1.1875 C12.625 1.5175 12.625 1.8475 12.625 2.1875 C8.665 2.1875 4.705 2.1875 0.625 2.1875 C-0.035 4.1675 -0.695 6.1475 -1.375 8.1875 C-2.695 7.8575 -4.015 7.5275 -5.375 7.1875 C-5.045 5.5375 -4.715 3.8875 -4.375 2.1875 C-6.355 2.1875 -8.335 2.1875 -10.375 2.1875 C-6.60154443 -0.32813705 -4.49765107 -0.04859937 0 0 Z " fill="#142020" transform="translate(360.375,201.8125)"/>
<path d="M0 0 C0.66 0.66 1.32 1.32 2 2 C1.34 4.31 0.68 6.62 0 9 C-2.64 9 -5.28 9 -8 9 C-8 8.34 -8 7.68 -8 7 C-8.680625 7.165 -9.36125 7.33 -10.0625 7.5 C-15.47317019 8.42096514 -19.03814415 8.48092792 -24 6 C-17.73 6 -11.46 6 -5 6 C-5 6.66 -5 7.32 -5 8 C-3.68 7.67 -2.36 7.34 -1 7 C-0.67 4.69 -0.34 2.38 0 0 Z " fill="#2F2F2F" transform="translate(366,212)"/>
<path d="M0 0 C8.61738853 -0.30654742 15.93475404 -0.39589303 24 3 C22.73046875 4.48828125 22.73046875 4.48828125 21 6 C17.3125 6.1875 17.3125 6.1875 14 6 C15.32 5.34 16.64 4.68 18 4 C18 3.34 18 2.68 18 2 C12.06 1.67 6.12 1.34 0 1 C0 0.67 0 0.34 0 0 Z " fill="#717171" transform="translate(408,164)"/>
<path d="M0 0 C0 0.33 0 0.66 0 1 C-0.97582031 1.04898438 -1.95164062 1.09796875 -2.95703125 1.1484375 C-4.22933594 1.22320312 -5.50164062 1.29796875 -6.8125 1.375 C-8.70935547 1.47941406 -8.70935547 1.47941406 -10.64453125 1.5859375 C-14.12755234 1.76102939 -14.12755234 1.76102939 -17 4 C-16.01 4.66 -15.02 5.32 -14 6 C-16.97 5.67 -19.94 5.34 -23 5 C-23 4.01 -23 3.02 -23 2 C-15.39701733 -0.48260659 -7.89688807 -0.18508331 0 0 Z " fill="#6F6F6F" transform="translate(314,164)"/>
<path d="M0 0 C0.66 0 1.32 0 2 0 C3.16063604 4.25566547 2.76173392 7.6835078 2 12 C0.68 11.34 -0.64 10.68 -2 10 C-1.67 9.01 -1.34 8.02 -1 7 C-2.65 7 -4.3 7 -6 7 C-6 5.35 -6 3.7 -6 2 C-5.67 2.99 -5.34 3.98 -5 5 C-3.35 4.34 -1.7 3.68 0 3 C0 2.01 0 1.02 0 0 Z " fill="#4B4B4B" transform="translate(254,263)"/>
<path d="M0 0 C4.95 0 9.9 0 15 0 C15.33 0.99 15.66 1.98 16 3 C15.38511719 2.90460938 14.77023437 2.80921875 14.13671875 2.7109375 C13.32847656 2.60007813 12.52023437 2.48921875 11.6875 2.375 C10.88699219 2.25898438 10.08648437 2.14296875 9.26171875 2.0234375 C6.71276785 1.78466593 6.71276785 1.78466593 4 4 C2.68 4 1.36 4 0 4 C0 2.68 0 1.36 0 0 Z " fill="#1ADCEC" transform="translate(349,232)"/>
<path d="M0 0 C3.68802044 1.22934015 4.72356973 2.93859378 7 6 C5.35 6 3.7 6 2 6 C2 7.65 2 9.3 2 11 C1.34 11 0.68 11 0 11 C0 8.36 0 5.72 0 3 C-0.66 2.67 -1.32 2.34 -2 2 C-1.34 1.34 -0.68 0.68 0 0 Z " fill="#C0C0C0" transform="translate(250,271)"/>
<path d="M0 0 C0.89203125 0.11085937 1.7840625 0.22171875 2.703125 0.3359375 C3.37859375 0.43132812 4.0540625 0.52671875 4.75 0.625 C0.8996895 3.19187367 -0.83569763 2.45788724 -5.25 1.625 C-5.25 2.285 -5.25 2.945 -5.25 3.625 C-6.24 4.285 -7.23 4.945 -8.25 5.625 C-7.92 6.285 -7.59 6.945 -7.25 7.625 C-8.57 7.625 -9.89 7.625 -11.25 7.625 C-11.25 6.305 -11.25 4.985 -11.25 3.625 C-10.59 3.625 -9.93 3.625 -9.25 3.625 C-9.25 2.965 -9.25 2.305 -9.25 1.625 C-5.9353333 -0.40407167 -3.8184021 -0.50242133 0 0 Z " fill="#777777" transform="translate(324.25,214.375)"/>
<path d="M0 0 C1.32 0.33 2.64 0.66 4 1 C4 1.66 4 2.32 4 3 C7.3 3 10.6 3 14 3 C14 3.33 14 3.66 14 4 C11.10450497 4.1954384 8.20891002 4.38161395 5.3125 4.5625 C4.49587891 4.61857422 3.67925781 4.67464844 2.83789062 4.73242188 C-1.29514123 4.98341571 -4.95824282 5.11127743 -9 4 C-5.86501708 2.14223235 -3.62528568 1.79859524 0 2 C0 1.34 0 0.68 0 0 Z " fill="#2F2F2F" transform="translate(139,207)"/>
<path d="M0 0 C1.134375 0.020625 2.26875 0.04125 3.4375 0.0625 C3.7675 1.7125 4.0975 3.3625 4.4375 5.0625 C1.7975 5.0625 -0.8425 5.0625 -3.5625 5.0625 C-4.125 3.125 -4.125 3.125 -4.5625 1.0625 C-3.5625 0.0625 -3.5625 0.0625 0 0 Z " fill="#B9B9B9" transform="translate(142.5625,159.9375)"/>
<path d="M0 0 C1.79093191 -0.08086147 3.58289628 -0.13912702 5.375 -0.1875 C6.87160156 -0.23970703 6.87160156 -0.23970703 8.3984375 -0.29296875 C9.25695312 -0.19628906 10.11546875 -0.09960938 11 0 C11.66 0.99 12.32 1.98 13 3 C8.71 3 4.42 3 0 3 C0 2.01 0 1.02 0 0 Z " fill="#272727" transform="translate(354,182)"/>
<path d="M0 0 C1.65 0 3.3 0 5 0 C5.66 1.32 6.32 2.64 7 4 C4.03 4 1.06 4 -2 4 C-1.34 2.68 -0.68 1.36 0 0 Z " fill="#ECECEC" transform="translate(358,161)"/>
<path d="M0 0 C0.33 0 0.66 0 1 0 C1 2.97 1 5.94 1 9 C0.01 9.495 0.01 9.495 -1 10 C-1 10.99 -1 11.98 -1 13 C-1.99 12.67 -2.98 12.34 -4 12 C-4 11.34 -4 10.68 -4 10 C-5.32 9.67 -6.64 9.34 -8 9 C-5.29120665 7.64560332 -2.99066732 7.93498549 0 8 C0 5.36 0 2.72 0 0 Z " fill="#1F3F44" transform="translate(368,222)"/>
<path d="M0 0 C0.66 0.33 1.32 0.66 2 1 C1.67 4.3 1.34 7.6 1 11 C1.66 11.33 2.32 11.66 3 12 C2.67 12.99 2.34 13.98 2 15 C-0.5625 16.1875 -0.5625 16.1875 -3 17 C-2.505 15.515 -2.505 15.515 -2 14 C-1.34 14 -0.68 14 0 14 C0 9.38 0 4.76 0 0 Z " fill="#5C5C5C" transform="translate(350,172)"/>
<path d="M0 0 C-0.99 0.33 -1.98 0.66 -3 1 C-3.33 1.66 -3.66 2.32 -4 3 C-3.01 3.33 -2.02 3.66 -1 4 C-6.625 4.25 -6.625 4.25 -10 2 C-10 1.34 -10 0.68 -10 0 C-6.33694766 -0.74926071 -3.57644848 -1.2380014 0 0 Z " fill="#797979" transform="translate(80,166)"/>
<path d="M0 0 C-1.625 2 -1.625 2 -4 4 C-7.25 4.25 -7.25 4.25 -10 4 C-10.33 3.01 -10.66 2.02 -11 1 C-3.375 -1.125 -3.375 -1.125 0 0 Z " fill="#A5A5A5" transform="translate(374,165)"/>
<path d="M0 0 C0.66 0.66 1.32 1.32 2 2 C5.58343976 2.16677282 5.58343976 2.16677282 9 2 C9.33 1.34 9.66 0.68 10 0 C10.33 1.32 10.66 2.64 11 4 C10.01 4 9.02 4 8 4 C8.33 4.99 8.66 5.98 9 7 C7.68 7.33 6.36 7.66 5 8 C5.66 7.67 6.32 7.34 7 7 C7 6.01 7 5.02 7 4 C4.36 4 1.72 4 -1 4 C-0.67 2.68 -0.34 1.36 0 0 Z " fill="#181818" transform="translate(137,162)"/>
<path d="M0 0 C-0.639375 0.28875 -1.27875 0.5775 -1.9375 0.875 C-4.15206079 1.82823451 -4.15206079 1.82823451 -5 4 C-6.65 4 -8.3 4 -10 4 C-10.33 3.01 -10.66 2.02 -11 1 C-3.375 -1.125 -3.375 -1.125 0 0 Z " fill="#ADADAD" transform="translate(156,165)"/>
<path d="M0 0 C0.33 0 0.66 0 1 0 C1 4.29 1 8.58 1 13 C-0.65 13.33 -2.3 13.66 -4 14 C-4.33 12.68 -4.66 11.36 -5 10 C-3.68 10.33 -2.36 10.66 -1 11 C-0.67 7.37 -0.34 3.74 0 0 Z " fill="#C4FBFB" transform="translate(256,309)"/>
<path d="M0 0 C2.64 0.33 5.28 0.66 8 1 C7.67 2.32 7.34 3.64 7 5 C4.69 4.34 2.38 3.68 0 3 C0 2.01 0 1.02 0 0 Z " fill="#121212" transform="translate(363,168)"/>
<path d="M0 0 C-5.75 3 -5.75 3 -8 3 C-8 3.66 -8 4.32 -8 5 C-10 4 -10 4 -11 2 C-9.73392393 1.46770674 -8.46189588 0.94955456 -7.1875 0.4375 C-6.47980469 0.14746094 -5.77210938 -0.14257812 -5.04296875 -0.44140625 C-3 -1 -3 -1 0 0 Z " fill="#434343" transform="translate(295,205)"/>
<path d="M0 0 C1.32 0.66 2.64 1.32 4 2 C2.62308038 4.75383923 0.63279958 5.51483101 -2 7 C-2.33 6.34 -2.66 5.68 -3 5 C-1.5625 2.375 -1.5625 2.375 0 0 Z M-1 3 C0 5 0 5 0 5 Z " fill="#151515" transform="translate(291,224)"/>
<path d="M0 0 C0.99 0.33 1.98 0.66 3 1 C1.625 3 1.625 3 0 5 C-0.66 5 -1.32 5 -2 5 C-2 5.99 -2 6.98 -2 8 C-2.66 8 -3.32 8 -4 8 C-3.34 6.02 -2.68 4.04 -2 2 C-1.34 2 -0.68 2 0 2 C0 1.34 0 0.68 0 0 Z " fill="#828282" transform="translate(283,210)"/>
<path d="M0 0 C0.78375 0.04125 1.5675 0.0825 2.375 0.125 C2.705 1.775 3.035 3.425 3.375 5.125 C0.735 4.135 -1.905 3.145 -4.625 2.125 C-2.625 0.125 -2.625 0.125 0 0 Z " fill="#090909" transform="translate(149.625,168.875)"/>
<path d="M0 0 C0.33 0 0.66 0 1 0 C1.22036864 3.85645121 0.60355101 6.49223216 -1 10 C-1.66 9.67 -2.32 9.34 -3 9 C-2.44271087 5.65626525 -1.64826111 2.96687001 0 0 Z " fill="#646464" transform="translate(290,231)"/>
<path d="M0 0 C0.99 0 1.98 0 3 0 C2.34 1.65 1.68 3.3 1 5 C-0.32 4.67 -1.64 4.34 -3 4 C-1.6875 2 -1.6875 2 0 0 Z " fill="#9B9B9B" transform="translate(235,281)"/>
<path d="M0 0 C3.96 0.33 7.92 0.66 12 1 C12 1.33 12 1.66 12 2 C7.38 2.33 2.76 2.66 -2 3 C-1.34 2.67 -0.68 2.34 0 2 C0 1.34 0 0.68 0 0 Z " fill="#3C3C3C" transform="translate(136,219)"/>
<path d="M0 0 C8.57142857 0.85714286 8.57142857 0.85714286 12 3 C9.69 3.33 7.38 3.66 5 4 C5 3.34 5 2.68 5 2 C3.35 1.67 1.7 1.34 0 1 C0 0.67 0 0.34 0 0 Z " fill="#6C6C6C" transform="translate(168,194)"/>
<path d="M0 0 C0.66 0.33 1.32 0.66 2 1 C1.75 2.875 1.75 2.875 1 5 C-1.0625 6.25 -1.0625 6.25 -3 7 C-3 3.48283697 -2.17554415 2.62878252 0 0 Z " fill="#4B4B4B" transform="translate(232,283)"/>
<path d="M0 0 C1.46015291 0.28241641 2.91809793 0.57626614 4.375 0.875 C5.18710938 1.03742188 5.99921875 1.19984375 6.8359375 1.3671875 C9 2 9 2 11 4 C8 5 8 5 5.95703125 4.22265625 C5.24933594 3.83980469 4.54164063 3.45695313 3.8125 3.0625 C3.09707031 2.68222656 2.38164062 2.30195313 1.64453125 1.91015625 C1.10183594 1.60980469 0.55914062 1.30945313 0 1 C0 0.67 0 0.34 0 0 Z " fill="#393939" transform="translate(206,204)"/>
</svg>
